<svg width="26" height="27" viewBox="0 0 26 27" fill="none" xmlns="http://www.w3.org/2000/svg">
<g clip-path="url(#clip0_1074_947)">
<path d="M19.4793 17.5985C18.6422 16.7721 17.5972 16.7721 16.7655 17.5985C16.131 18.2276 15.4965 18.8568 14.8727 19.4966C14.7021 19.6725 14.5581 19.7098 14.3502 19.5925C13.9397 19.3686 13.5025 19.1873 13.1079 18.9421C11.2685 17.7851 9.72762 16.2975 8.3627 14.6234C7.68557 13.7916 7.08309 12.9012 6.66188 11.8989C6.57657 11.6963 6.59257 11.563 6.75785 11.3977C7.39233 10.7846 8.01081 10.1554 8.63461 9.52627C9.50368 8.65187 9.50368 7.62818 8.62928 6.74845C8.13343 6.24727 7.63758 5.75675 7.14174 5.25557C6.62989 4.74372 6.12338 4.22655 5.6062 3.72004C4.76912 2.90428 3.72411 2.90428 2.89236 3.72537C2.25256 4.35451 1.63941 4.99965 0.98894 5.61813C0.386457 6.18862 0.0825489 6.88707 0.0185684 7.70283C-0.0827342 9.03042 0.2425 10.2834 0.701028 11.5043C1.63941 14.0316 3.06831 16.2762 4.80111 18.3343C7.14174 21.1174 9.93555 23.3194 13.2039 24.9083C14.6754 25.6227 16.2003 26.1719 17.8585 26.2625C18.9995 26.3265 19.9912 26.0386 20.7856 25.1482C21.3294 24.5404 21.9426 23.9859 22.5184 23.4047C23.3715 22.541 23.3768 21.496 22.5291 20.6429C21.516 19.6245 20.4977 18.6115 19.4793 17.5985Z" fill="white"/>
<path d="M18.4612 13.3488L20.4286 13.0129C20.1194 11.2054 19.2663 9.5686 17.9707 8.26766C16.6004 6.89741 14.8676 6.03368 12.9589 5.76709L12.6816 7.74516C14.1585 7.95309 15.5021 8.61956 16.5631 9.68057C17.5655 10.6829 18.2213 11.9519 18.4612 13.3488Z" fill="white"/>
<path d="M21.5371 4.797C19.2658 2.52569 16.392 1.09146 13.2196 0.648926L12.9424 2.62699C15.6829 3.01087 18.1675 4.25316 20.1295 6.2099C21.9903 8.07067 23.2113 10.422 23.6538 13.0078L25.6212 12.6719C25.104 9.67551 23.6911 6.95634 21.5371 4.797Z" fill="white"/>
</g>
<defs>
<clipPath id="clip0_1074_947">
<rect width="25.6221" height="25.6221" fill="white" transform="translate(0 0.648926)"/>
</clipPath>
</defs>
</svg>
